<svg width="24" height="24" viewBox="0 0 24 24" fill="none" xmlns="http://www.w3.org/2000/svg">
<path fill-rule="evenodd" clip-rule="evenodd" d="M8.79947 2.63012C8.86569 2.34748 8.99457 2.07528 9.18778 1.83484C9.84939 1.01151 11.0372 0.844578 11.9001 1.45365C12.1526 1.63191 12.3519 1.85864 12.4935 2.11276C15.4792 2.54724 18.088 5.02562 18.6529 9.0453C19.0182 11.6444 19.7503 13.0338 20.874 13.961C21.1525 14.1907 22.1083 14.8353 22.217 14.9184C22.4257 15.078 22.5633 15.3134 22.5999 15.5736L22.8782 17.5541C22.9551 18.1011 22.574 18.6067 22.0271 18.6836L16.9513 19.3969C16.8406 20.4069 16.35 21.3469 15.5174 22.0306C14.3568 22.9837 12.7608 23.208 11.3824 22.6118C10.2619 22.1271 9.59241 21.5036 9.24074 20.4806L4.20228 21.1887C3.65537 21.2656 3.14971 20.8845 3.07284 20.3376L2.7945 18.3571C2.75792 18.0968 2.82526 17.8327 2.98194 17.6217C3.07042 17.5034 3.80755 16.6279 4.01064 16.3334C4.83525 15.1374 5.15569 13.602 4.78913 10.9937C4.22258 6.96253 6.04494 3.86762 8.79947 2.63012ZM11.311 20.1896C11.4875 20.4302 11.7536 20.5932 12.1765 20.7762C12.867 21.0749 13.6666 20.9625 14.2481 20.485C14.5174 20.2639 14.7141 19.9938 14.8345 19.6944L11.311 20.1896Z" fill="black"/>
</svg>
